<svg width="59" height="52" viewBox="0 0 59 52" fill="none" xmlns="http://www.w3.org/2000/svg">
<g clip-path="url(#clip0_4_28)">
<path d="M9.9359 40.6115V29.1458H5.04304H0.150177L8.2833 21.0156C23.2734 6.03105 29.4563 -0.109512 29.5542 -0.109512C29.7148 -0.109512 42.4553 12.6381 42.4553 12.7988C42.4553 12.8807 41.9088 13.3786 41.2408 13.9055L40.0263 14.8634L38.4384 13.2876C37.5651 12.4209 35.2185 10.0731 33.2238 8.07023L29.5972 4.42869L18.9819 15.0034C13.1435 20.8195 8.34756 25.6361 8.3242 25.7071C8.29441 25.7976 9.01678 25.8361 10.7435 25.8361H13.2054V37.3018V48.7675H29.5526H45.8999V37.3018V25.8361H48.4385H50.9772L48.4685 23.2944C46.5316 21.3321 45.9862 20.715 46.0758 20.5867C46.1396 20.4954 46.5559 19.8839 47.001 19.2279L47.8102 18.0352L48.7525 18.9507C49.2707 19.4543 51.7882 21.9542 54.347 24.506L58.9991 29.1458H54.0842H49.1693V40.6115V52.0772H29.5526H9.9359V40.6115ZM27.3164 28.2517C24.7525 27.782 22.0892 26.2287 19.9362 23.9475C18.8842 22.8329 18.5776 22.3643 18.577 21.8704C18.5759 20.963 19.2062 21.0027 20.4852 21.9906C22.3463 23.4282 23.884 24.243 25.6508 24.7279C26.298 24.9055 26.8525 24.9483 28.4433 24.943C30.2932 24.9368 30.4959 24.914 31.4209 24.6059C34.1904 23.6832 35.9209 22.354 39.065 18.7346C41.3325 16.1243 42.8105 14.7729 43.8254 14.3824C44.0566 14.2934 44.1284 14.1402 44.2486 13.4801C44.5266 11.9524 45.3033 10.8628 46.7774 9.9328C48.4773 8.86026 50.3944 8.37612 52.4715 8.49483C53.5798 8.5582 55.0696 8.88671 55.6333 9.1921C55.8483 9.30857 55.8097 9.33887 55.2672 9.47941C53.4465 9.9511 52.5098 10.8458 50.9412 13.6117C49.8992 15.4488 48.8128 16.2491 47.2176 16.3547C46.3961 16.409 46.3721 16.4196 46.2546 16.7793C45.9282 17.7781 43.8309 20.5789 42.0383 22.4098C38.8822 25.6334 35.4029 27.6664 32.0197 28.2636C30.813 28.4766 28.5125 28.4708 27.3164 28.2517Z" fill="#D45800"/>
</g>
<defs>
<clipPath id="clip0_4_28">
<rect width="59" height="52" fill="white"/>
</clipPath>
</defs>
</svg>
