<svg width="55" height="55" viewBox="0 0 55 55" fill="none" xmlns="http://www.w3.org/2000/svg">
<rect width="54.6417" height="54.6417" rx="27.3209" fill="#2A2A2A"/>
<rect width="54.6417" height="54.6417" rx="27.3209" fill="#2A2A2A"/>
<rect width="54.6417" height="54.6417" rx="27.3209" fill="#D45800"/>
<path fill-rule="evenodd" clip-rule="evenodd" d="M27.2793 38.926C24.7277 38.926 23.542 38.5662 21.4809 37.1273C20.1772 38.7461 16.0487 40.0112 15.8687 37.8468C15.8687 36.2221 15.4962 34.8492 15.074 33.3503C14.5712 31.5037 14 29.4473 14 26.4677C14 19.3512 20.0468 13.9973 27.211 13.9973C34.3815 13.9973 39.9999 19.615 39.9999 26.5336C40.024 33.3452 34.3327 38.8896 27.2793 38.926ZM27.3849 20.1485C23.8959 19.9747 21.1767 22.3069 20.5745 25.964C20.0778 28.9917 20.9594 32.6788 21.7106 32.8707C22.0707 32.9546 22.9771 32.2472 23.542 31.7016C24.4762 32.3248 25.564 32.6991 26.6958 32.7867C30.3109 32.9547 33.4 30.2968 33.6427 26.8094C33.784 23.3146 31.0006 20.3545 27.3849 20.1545V20.1485Z" fill="white"/>
<path fill-rule="evenodd" clip-rule="evenodd" d="M27.2793 38.926C24.7277 38.926 23.542 38.5662 21.4809 37.1273C20.1772 38.7461 16.0487 40.0112 15.8687 37.8468C15.8687 36.2221 15.4962 34.8492 15.074 33.3503C14.5712 31.5037 14 29.4473 14 26.4677C14 19.3512 20.0468 13.9973 27.211 13.9973C34.3815 13.9973 39.9999 19.615 39.9999 26.5336C40.024 33.3452 34.3327 38.8896 27.2793 38.926ZM27.3849 20.1485C23.8959 19.9747 21.1767 22.3069 20.5745 25.964C20.0778 28.9917 20.9594 32.6788 21.7106 32.8707C22.0707 32.9546 22.9771 32.2472 23.542 31.7016C24.4762 32.3248 25.564 32.6991 26.6958 32.7867C30.3109 32.9547 33.4 30.2968 33.6427 26.8094C33.784 23.3146 31.0006 20.3545 27.3849 20.1545V20.1485Z" fill="#2A2A2A"/>
<path fill-rule="evenodd" clip-rule="evenodd" d="M27.2793 38.926C24.7277 38.926 23.542 38.5662 21.4809 37.1273C20.1772 38.7461 16.0487 40.0112 15.8687 37.8468C15.8687 36.2221 15.4962 34.8492 15.074 33.3503C14.5712 31.5037 14 29.4473 14 26.4677C14 19.3512 20.0468 13.9973 27.211 13.9973C34.3815 13.9973 39.9999 19.615 39.9999 26.5336C40.024 33.3452 34.3327 38.8896 27.2793 38.926ZM27.3849 20.1485C23.8959 19.9747 21.1767 22.3069 20.5745 25.964C20.0778 28.9917 20.9594 32.6788 21.7106 32.8707C22.0707 32.9546 22.9771 32.2472 23.542 31.7016C24.4762 32.3248 25.564 32.6991 26.6958 32.7867C30.3109 32.9547 33.4 30.2968 33.6427 26.8094C33.784 23.3146 31.0006 20.3545 27.3849 20.1545V20.1485Z" fill="#2A2A2A"/>
</svg>
