<svg width="55" height="55" viewBox="0 0 55 55" fill="none" xmlns="http://www.w3.org/2000/svg">
<rect width="54.6417" height="54.6417" rx="27.3209" fill="#D45800"/>
<g clip-path="url(#clip0_13_42)">
<path fill-rule="evenodd" clip-rule="evenodd" d="M15.2728 13.6165C15.6175 13.2723 16.0315 13.0052 16.4872 12.8331C16.943 12.661 17.4301 12.5876 17.9163 12.618C18.4026 12.6484 18.8768 12.7817 19.3076 13.0092C19.7384 13.2367 20.1159 13.5532 20.4151 13.9376L23.9517 18.4811C24.6 19.3145 24.8285 20.4001 24.5724 21.4246L23.4946 25.7395C23.4389 25.963 23.4419 26.197 23.5034 26.419C23.5648 26.641 23.6826 26.8433 23.8454 27.0063L28.6863 31.8473C28.8495 32.0103 29.0521 32.1283 29.2745 32.1898C29.4969 32.2512 29.7313 32.254 29.9551 32.198L34.268 31.1202C34.7736 30.9938 35.3013 30.984 35.8113 31.0915C36.3212 31.199 36.8 31.4211 37.2116 31.7409L41.755 35.2755C43.3883 36.5463 43.538 38.9599 42.0761 40.4198L40.0389 42.4571C38.5809 43.9151 36.4018 44.5554 34.3705 43.8402C29.1713 42.0109 24.4508 39.0344 20.559 35.1317C16.6565 31.2404 13.68 26.5206 11.8504 21.3222C11.1372 19.2928 11.7775 17.1117 13.2355 15.6537L15.2728 13.6165Z" fill="#21272A"/>
</g>
<defs>
<clipPath id="clip0_13_42">
<rect width="31.5241" height="31.5241" fill="white" transform="translate(11.5588 12.6096)"/>
</clipPath>
</defs>
</svg>
