<svg width="55" height="55" viewBox="0 0 55 55" fill="none" xmlns="http://www.w3.org/2000/svg">
<rect width="54.6417" height="54.6417" rx="27.3209" fill="#D45800"/>
<path d="M28.663 36.8831C18.3951 36.8831 12.5384 29.7042 12.2944 17.7585H17.4377C17.6067 26.5264 21.3985 30.2403 24.4019 31.006V17.7585H29.2449V25.3203C32.2108 24.9949 35.3268 21.549 36.378 17.7585H41.221C40.8249 19.7244 40.0353 21.5857 38.9016 23.2261C37.7679 24.8665 36.3145 26.2507 34.6323 27.2921C36.51 28.2437 38.1686 29.5905 39.4984 31.2438C40.8283 32.897 41.7993 34.8191 42.3473 36.8831H37.0163C36.5243 35.0904 35.5245 33.4855 34.142 32.2698C32.7596 31.054 31.056 30.2814 29.2449 30.0488V36.8831H28.663V36.8831Z" fill="#2A2A2A"/>
</svg>
