<svg width="55" height="55" viewBox="0 0 55 55" fill="none" xmlns="http://www.w3.org/2000/svg">
<rect width="54.6417" height="54.6417" rx="27.3209" fill="#D45800"/>
<path d="M38.1492 16.4779C35.4504 13.7885 31.8521 12.2944 28.0538 12.2944C20.1574 12.2944 13.7604 18.6693 13.7604 26.5383C13.7604 29.0285 14.46 31.5186 15.6595 33.6104L13.6604 40.9813L21.2569 38.9892C23.356 40.0849 25.6549 40.6825 28.0538 40.6825C35.9502 40.6825 42.3473 34.3076 42.3473 26.4387C42.2473 22.7532 40.848 19.1673 38.1492 16.4779ZM34.9507 31.6182C34.6508 32.4151 33.2515 33.212 32.5518 33.3116C31.952 33.4112 31.1524 33.4112 30.3528 33.212C29.853 33.0127 29.1533 32.8135 28.3537 32.4151C24.7553 30.921 22.4564 27.3351 22.2565 27.0363C22.0566 26.8371 20.7572 25.1438 20.7572 23.3508C20.7572 21.5579 21.6567 20.7611 21.9566 20.3626C22.2565 19.9642 22.6563 19.9642 22.9562 19.9642C23.1561 19.9642 23.4559 19.9642 23.6558 19.9642C23.8557 19.9642 24.1556 19.8646 24.4555 20.5618C24.7553 21.2591 25.455 23.052 25.555 23.1516C25.6549 23.3508 25.6549 23.5501 25.555 23.7493C25.455 23.9485 25.3551 24.1477 25.1551 24.3469C24.9552 24.5461 24.7553 24.845 24.6554 24.9446C24.4555 25.1438 24.2556 25.343 24.4555 25.6418C24.6554 26.0402 25.3551 27.1359 26.4546 28.132C27.8539 29.3273 28.9534 29.7257 29.3532 29.9249C29.7531 30.1241 29.953 30.0245 30.1529 29.8253C30.3528 29.6261 31.0525 28.8292 31.2524 28.4308C31.4523 28.0324 31.7521 28.132 32.052 28.2316C32.3519 28.3312 34.151 29.2277 34.4509 29.4269C34.8507 29.6261 35.0506 29.7257 35.1506 29.8253C35.2505 30.1241 35.2505 30.8214 34.9507 31.6182Z" fill="#2A2A2A"/>
</svg>
